<svg width="139" height="139" viewBox="0 0 139 139" xmlns="http://www.w3.org/2000/svg"><title>ECD1EBE8-60D8-4803-A9F6-C00B13C4CC5C</title><g fill="none" fill-rule="evenodd"><path d="M135.153 83.236c-3.669 17.537-13.948 32.595-28.943 42.4-14.995 9.807-32.911 13.186-50.446 9.517-17.536-3.668-32.594-13.947-42.4-28.942C3.557 91.216.177 73.3 3.845 55.764c3.67-17.537 13.949-32.595 28.943-42.4C47.785 3.556 65.7.177 83.236 3.846c17.536 3.668 32.594 13.948 42.4 28.942 9.806 14.995 13.185 32.911 9.517 50.447m-7.507-51.762C117.49 15.941 101.892 5.296 83.73 1.495c-18.164-3.8-36.723-.3-52.255 9.858C15.943 21.51 5.296 37.108 1.495 55.272c-3.8 18.164-.3 36.722 9.858 52.254 10.157 15.533 25.755 26.178 43.918 29.98 18.164 3.8 36.722.299 52.254-9.859 15.533-10.157 26.18-25.754 29.98-43.918 3.8-18.165.3-36.723-9.859-52.255" fill="#FEFEFE"/><path d="M10.227 85.492l.41 1.444 2.534-.719-.256-.9-.767.144c-.786.147-1.682.128-1.921.031zm-.452-1.59l.135.476c.278.112 1.31.25 2.779-.098l.897-.213.823 2.894-3.483.988.17.602-1.71.485-.27-.95.76-.215-.781-2.749-.76.216-.27-.95 1.71-.485zM14.825 88.17l.944 2.565-.927.34-.58-1.575-.761.279.512 1.39-.927.34-.513-1.39-.785.289.603 1.637-.927.34-.967-2.625zM16.32 94.463l-.666-1.47-3.3 1.496-.435-.96 4.2-1.903 1.537 3.389-4.2 1.902-.435-.96zM16.488 98.446l.492.91.894-1.087-1.386.177zm2.355-1.223l.448.828-3.114 3.933-.536-.991.664-.808-.868-1.605-1.027.136-.504-.933 4.937-.56zM20.315 101.619l-.878.582c.068.137.155.292.238.419.152.23.44.45.814.203.34-.225.299-.514.092-.827-.077-.116-.14-.2-.266-.377zm-3.599 1.123l3.84-2.548c.142.214.593.872.79 1.168.773 1.17.419 1.958-.245 2.398-.686.455-1.642.323-2.23-.567a4.989 4.989 0 0 1-.267-.439l-1.306.867-.582-.879zM22.62 103.292l2.332 3.026-.783.604-.843-1.096-2.866 2.213-.643-.835 2.866-2.213-.844-1.096zM23.935 109.178l.685.775.635-1.25-1.32.475zm2.038-1.701l.623.705-2.178 4.493-.746-.843.471-.928-1.208-1.366-.977.357-.703-.794 4.718-1.624zM28.257 110.018l.774.725-.29 2.39 2.309-.5.726.68-3.152 3.365-.769-.72 2.008-2.144-2.166.435-.11-.104.282-2.171-1.994 2.13-.77-.72zM32.587 113.952l2.14 1.697-.613.774-1.316-1.042-.503.634 1.16.92-.613.775-1.161-.92-.52.655 1.368 1.084-.614.774-2.193-1.738zM36.207 120.04l-1.39-.941-1.044 1.536-.872-.59 2.59-3.814.872.59-.991 1.46 1.39.942.991-1.46.872.59-2.589 3.814-.872-.59zM39.148 118.683l3.317 1.893-.491.856-1.2-.685-1.8 3.143-.915-.523 1.8-3.142-1.201-.685zM42.481 124.902l.818-.418c.122.387.37.781.712.936.258.116.634.163.79-.179.11-.246-.006-.515-.462-.721l-.384-.174.407-.9.36.163c.276.125.57.113.69-.151s-.015-.477-.285-.599c-.276-.125-.58-.11-.943.102l-.258-.898c.447-.268 1.117-.326 1.735-.047.75.34 1.108 1 .76 1.768-.135.3-.44.574-.933.656l-.008.018c.428.38.454.833.237 1.313-.35.774-1.321.907-2.072.568-.852-.386-1.094-1-1.164-1.437M47.87 126.941l1.412.51.896-2.476-.88-.318-.332.706c-.339.725-.877 1.44-1.096 1.578zm-1.554-.562l.464.168c.254-.16.97-.917 1.544-2.313l.35-.853 2.831 1.023-1.232 3.406.589.213-.606 1.672-.928-.336.268-.743-2.687-.972-.269.743-.929-.336.605-1.672zM53.478 126.012l-.28 1.016c.141.059.309.119.455.16.267.073.628.05.747-.382.109-.394-.112-.584-.474-.684-.133-.037-.236-.059-.448-.11zm-1.978 3.21l1.226-4.442c.247.068 1.019.267 1.361.362 1.353.373 1.602 1.2 1.39 1.968-.218.793-1.026 1.322-2.055 1.038a5.092 5.092 0 0 1-.49-.156l-.416 1.511-1.016-.28zM57.032 128.605l1.013.205-.246-1.38-.767 1.175zm.602-2.586l.923.187.967 4.897-1.104-.222-.183-1.025-1.788-.36-.566.873-1.04-.21 2.791-4.14zM61.945 127.754l-.102.83.347.043c.267.033.497-.051.538-.385.033-.274-.198-.442-.453-.474-.13-.016-.21-.012-.33-.014zm-.215 1.745l-.105.856c.07.03.152.06.348.084.405.05.63-.102.667-.409.036-.287-.165-.438-.504-.48l-.406-.05zm-.711-2.842c.256.018.893.07 1.39.132 1.091.135 1.474.694 1.396 1.328-.06.477-.281.775-.648.955l-.002.013c.318.165.597.539.524 1.127-.118.961-.918 1.32-1.912 1.196a18.172 18.172 0 0 1-1.308-.202l.56-4.55zM66.936 130.904c.875.038 1.355-.562 1.387-1.339.035-.842-.527-1.42-1.27-1.451-.764-.032-1.353.496-1.388 1.339-.032.79.535 1.42 1.271 1.451m.157-3.777c1.402.06 2.41 1.018 2.349 2.486-.058 1.395-1.145 2.338-2.546 2.278-1.402-.059-2.41-1.018-2.349-2.486.056-1.336 1.08-2.34 2.546-2.278M72.702 130.881c.875-.044 1.296-.686 1.255-1.461-.044-.842-.658-1.365-1.401-1.327-.763.04-1.3.62-1.256 1.462.042.789.665 1.364 1.402 1.326m-.198-3.774c1.4-.072 2.494.79 2.571 2.255.073 1.394-.92 2.434-2.321 2.506-1.401.071-2.495-.79-2.571-2.256-.07-1.335.855-2.43 2.321-2.505M78.15 128.9l1.833 2.128-1.227.164-1.184-1.403-.76 1.663-1.227.164 1.208-2.534-1.749-2.045 1.227-.164 1.123 1.345.69-1.588 1.227-.164zM81.182 127.081l.218 1.031c.152-.011.329-.035.477-.066.27-.058.581-.244.49-.682-.085-.4-.369-.468-.736-.39-.135.028-.237.056-.449.107zm-.284 3.762l-.95-4.511c.25-.053 1.028-.23 1.376-.304 1.373-.289 1.975.332 2.139 1.111.17.806-.306 1.646-1.35 1.867-.097.02-.342.071-.507.086l.323 1.534-1.031.217zM85.527 127.755l.994-.284-.852-1.112-.142 1.396zm-.652-2.574l.905-.259 3.107 3.907-1.083.31-.633-.826-1.753.501-.102 1.036-1.02.291.579-4.96zM91.69 125.8l-1.57.596.657 1.737-.984.373-1.63-4.31.984-.374.624 1.65 1.57-.595-.624-1.651.985-.374 1.63 4.312-.985.373zM92.657 122.423l2.476-1.155.417.896-1.522.71.341.734 1.343-.626.417.896-1.343.626.353.758 1.581-.737.416.896-2.536 1.182zM99.716 121.936l-1.478.8.905 1.62-.927.502-2.246-4.025.927-.502.86 1.542 1.477-.8-.86-1.54.927-.502 2.246 4.026-.927.501zM102.746 122.297l-2.58-3.82.873-.588 1.603 2.373.09-3.513.764-.516 2.58 3.82-.874.588-1.603-2.373-.089 3.513zM107.295 115.972l-.72-.9c-.06.032-.258.173-.315.219-.273.217-.37.58-.131.879.214.267.505.262.734.147l.432-.345zm.618.772l-.366.291.242 1.703-.921.735-.226-2.01a1.402 1.402 0 0 1-1.342-.539c-.544-.678-.61-1.645.507-2.536.227-.18.763-.575.974-.743l2.881 3.598-.823.657-.926-1.156zM109.791 113.169l1.527-1.451.636.667-.811.771 1.406 1.48-.716.68zM113.118 112.321a.63.63 0 0 1 .875-.008c.25.245.304.65.045.912a.653.653 0 0 1-.95.008c-.211-.207-.266-.611.03-.912M111.763 108.953l.69-.805 2.4.185-.598-2.284.647-.755 3.5 3.002-.687.8-2.23-1.913.529 2.146-.099.115-2.181-.189 2.214 1.9-.686.8zM119.777 104.856c.503-.717.257-1.445-.378-1.892-.69-.484-1.48-.323-1.907.286-.438.625-.31 1.406.379 1.891.646.455 1.482.318 1.906-.285m-3.092-2.174c.805-1.148 2.155-1.478 3.357-.634 1.142.803 1.348 2.228.543 3.376-.805 1.148-2.156 1.478-3.357.633-1.094-.768-1.387-2.174-.543-3.375M123.99 98.963c.128.395.02 1.026-.295 1.566-.72 1.236-2.036 1.611-3.275.888-1.143-.667-1.643-1.913-.845-3.285.308-.53.752-.873 1.124-.976l.448.803c-.257.14-.5.295-.719.67-.358.616-.229 1.362.556 1.82.705.412 1.49.214 1.908-.503.165-.285.257-.65.213-1.034l.885.05zM120.694 96.289l.46-.948 1.807.878-1.148-2.234.551-1.138 1.158 2.488 3.049-.597-.584 1.203-2.659.457 1.972.96-.46.947zM125.576 92.204l.802.319c.045-.06.095-.133.168-.316.15-.38.06-.636-.227-.75-.27-.106-.466.049-.592.367l-.15.38zm-1.633-.65l.777.31.129-.325c.1-.251.075-.494-.237-.618-.257-.102-.477.079-.572.318-.049.122-.066.2-.097.315zm-1.294.62c.083-.244.293-.847.478-1.312.405-1.022 1.041-1.251 1.635-1.015.446.177.679.468.76.869l.013.005c.24-.266.67-.442 1.221-.223.9.357 1.045 1.222.676 2.153-.163.41-.4.974-.525 1.215l-4.258-1.692zM126.71 88.236l1.12.341c.048-.11.087-.194.116-.288.124-.41-.004-.69-.42-.816-.39-.119-.643.08-.756.451-.025.082-.041.18-.06.312zm-1.593-3.134l.306-1.007 4.409 1.34-.307 1.008-4.408-1.34zm.642 2.845c.029-.163.064-.304.093-.398.33-1.084 1.074-1.428 1.975-1.154.945.287 1.382 1.136 1.027 2.3-.138.454-.294.923-.373 1.18l-4.408-1.34.306-1.008 1.38.42zM8.408 58.766l.392-1.633 3.519-1.472-2.495-2.788.368-1.531 7.1 1.707-.39 1.622-4.524-1.087 2.294 2.643-.056.234-3.212 1.309 4.493 1.08-.39 1.623zM11.003 49.133l1.562-4.037 1.46.564-.96 2.481 1.196.463.847-2.189 1.46.565-.847 2.189 1.235.478.997-2.579 1.46.565-1.6 4.135zM19.435 44.021l1.127-2.093-3.673-1.98-.702 1.305 1.029.684c1.057.7 2.053 1.71 2.219 2.084zm-1.242 2.305l.37-.689c-.191-.435-1.211-1.73-3.264-2.955l-1.256-.748 2.26-4.197 5.05 2.721.471-.872 2.48 1.335-.743 1.378-1.101-.594-2.148 3.986 1.102.594-.742 1.377-2.48-1.336zM23.645 39.704l-5.88-4.33.99-1.344 3.654 2.69-1.737-5.294.866-1.176 5.88 4.33-.99 1.344-3.653-2.69 1.736 5.294zM23.085 28.44l1.165-1.195 4.108 4.005 1.748-1.792-4.108-4.006 1.166-1.194 4.107 4.005.692-.709 2.016 1.967-1.093 1.12-.896-.874-3.678 3.771zM33.677 28.173l-4.458-5.782 1.322-1.02 2.77 3.594-.21-5.568 1.157-.892 4.458 5.783-1.321 1.02-2.771-3.594.21 5.568zM42.169 18.838l-2.311 1.318 1.457 2.556-1.45.826-3.617-6.345 1.45-.826 1.385 2.429 2.311-1.318-1.384-2.428 1.45-.827 3.616 6.345-1.45.826zM51.372 17.133c-.218.62-.961 1.31-1.877 1.686-2.094.862-4.112.069-4.978-2.034-.798-1.939-.232-3.988 2.093-4.945.897-.37 1.786-.374 2.354-.146l-.208 1.44c-.459-.071-.914-.11-1.551.152-1.041.43-1.596 1.493-1.048 2.824.492 1.196 1.67 1.703 2.886 1.203.483-.199.95-.571 1.264-1.096l1.065.916zM50.463 10.536l1.61-.443.842 3.069 1.461-3.701 1.931-.531-1.753 3.976 3.9 3.008-2.042.56-3.325-2.688.92 3.35-1.61.441zM59.092 15.792l-.92-7.243 1.656-.21.571 4.5 2.637-4.908 1.449-.184.92 7.244-1.657.21-.571-4.501-2.637 4.908zM69.566 5.72c-.003.397.184.523.643.527.396.002.606-.069.61-.518l1.564.012c.013 1.012-.878 1.663-2.182 1.653-1.409-.01-2.207-.684-2.2-1.685l1.565.011zm-2.78 9.16l.055-7.302 1.668.012-.033 4.537 3.267-4.513 1.46.01-.054 7.303-1.668-.013.033-4.537-3.268 4.513-1.46-.01zM78.341 8.168l1.64.31-.59 3.126 2.937-2.684 1.969.371-3.32 2.803 2.182 4.413-2.08-.392-1.807-3.875-.643 3.413-1.64-.309zM86.948 16.242c1.318.433 2.308-.274 2.692-1.443.417-1.268-.192-2.39-1.312-2.758-1.149-.378-2.275.175-2.691 1.443-.391 1.189.201 2.394 1.311 2.758m1.869-5.688c2.11.694 3.233 2.588 2.507 4.799-.69 2.1-2.753 3.069-4.864 2.375-2.11-.693-3.234-2.588-2.508-4.798.66-2.011 2.655-3.102 4.865-2.376M97.304 15.94l-1.44-.711-.75 1.164c-2.1 3.256-3.274 3.56-4.683 2.55l.769-1.484c.495.362 1.158.434 3.215-3.064l.741-1.263 4.338 2.147-3.238 6.545-1.496-.74 2.544-5.143zM104.155 20.102l-1.333-.897-.898 1.056c-2.511 2.95-3.715 3.096-4.978 1.908l.957-1.368c.444.425 1.092.583 3.592-2.613l.9-1.154 4.018 2.7-4.073 6.06-1.385-.93 3.2-4.762zM108.18 21.138l3.29 2.814-1.018 1.189-2.021-1.729-.834.975 1.783 1.525-1.016 1.19-1.784-1.526-.86 1.007 2.1 1.796-1.017 1.189-3.369-2.881zM110.199 30.78l1.602 1.758 3.085-2.81-.998-1.096-.987.745c-1.011.765-2.295 1.37-2.702 1.402zm-1.764-1.936l.527.578c.474-.037 2.036-.57 3.872-2.102l1.122-.937 3.211 3.524-4.242 3.865.668.732-2.083 1.898-1.054-1.157.926-.843-3.05-3.347-.925.843-1.054-1.157 2.082-1.897zM118.893 31.858l1.039 1.613-1.488 3.586 2.684-1.726.903 1.403-2.684 1.727 3.88.133 1.038 1.614-4.3-.247-1.777 4.292-1.038-1.613 1.68-3.846-2.939 1.89-.903-1.404 2.939-1.89-4.197-.065-1.038-1.614 4.634.168zM126.272 53.757c.145.425.486.617.91.473.405-.138.555-.508.413-.923-.14-.415-.485-.617-.89-.479-.424.144-.57.524-.433.93zm2.508-.853c.414 1.214-.001 2.325-1.127 2.708-1.126.383-2.152-.237-2.565-1.452-.414-1.214.021-2.332 1.146-2.715 1.126-.383 2.133.244 2.546 1.459zm-4.643-.304l1.15 3.377-1.383.47-1.149-3.377 1.382-.47zm-3.127-1.227l3.098-4.492-4.147 1.411-.504-1.481 6.912-2.352.43 1.263-3.118 4.499 4.166-1.418.505 1.481-6.912 2.352-.43-1.263zM130.075 56.548l.814 4.728-1.048.18-6.567-1.377-.29-1.685 6.047 1.308-.498-2.888zM22.354 92.747a10.538 10.538 0 0 1 1.878-.169c3.2 0 6.18 1.439 8.177 3.946l.002.002.057.08a45.136 45.136 0 0 0 7.268 7.95l.015.011a.518.518 0 0 0 .505.105 14.329 14.329 0 0 1 4.473-.712c3.854 0 7.47 1.507 10.184 4.242a.52.52 0 0 0 .738.003.521.521 0 0 0 .003-.738 15.283 15.283 0 0 0-10.925-4.55c-1.538 0-3.053.229-4.51.675a44.102 44.102 0 0 1-6.904-7.594l-.074-.104-.015-.017-.001-.002a11.428 11.428 0 0 0-7.656-4.262 47.66 47.66 0 0 1-1.06-2.327 47.915 47.915 0 0 1-3.757-17.434 3.845 3.845 0 0 1 2.328-.787 3.849 3.849 0 0 1 3.83 3.487c.002.035.01.069.02.102a42.13 42.13 0 0 0 7.852 20.703.52.52 0 1 0 .845-.613 41.086 41.086 0 0 1-7.67-20.289.505.505 0 0 0-.025-.113 4.974 4.974 0 0 0-.05-.352 4.89 4.89 0 0 0-4.534-3.957c.017-1.552.108-3.11.28-4.639l.008-.073a3.847 3.847 0 0 1 5.76 3.09 40.213 40.213 0 0 0-.058 2.132c0 8.348 2.565 16.333 7.418 23.092a.52.52 0 1 0 .847-.609c-4.724-6.58-7.221-14.355-7.221-22.483 0-.706.019-1.418.057-2.118l-.002-.028-.024-.03-.031-.045v-.003c0-1.922-1.34-3.527-3.037-4.207a3.857 3.857 0 0 1 4.687 3.758c0 .052.002.104 0 .156l-.006.042-.017.288a37.97 37.97 0 0 0-.063 2.187c0 7.675 2.327 15.038 6.73 21.292a.522.522 0 1 0 .853-.6c-4.278-6.078-6.54-13.233-6.54-20.692 0-.706.021-1.422.062-2.125l.013-.214c.005-.024.01-.048.011-.073a4.826 4.826 0 0 0-.444-2.299 2.992 2.992 0 0 1 1.975 2.81 35.37 35.37 0 0 0-.052 1.901c0 12.27 6.549 23.608 17.134 29.767.032.03.067.06.108.081.14.076 13.866 7.647 14.302 21.707a51.441 51.441 0 0 1-26.174-8.863 51.808 51.808 0 0 1-17.57-20.488M106.599 96.524l-.002.002-.057.08a45.117 45.117 0 0 1-7.268 7.95l-.015.011a.518.518 0 0 1-.505.104 14.336 14.336 0 0 0-4.473-.71c-3.854 0-7.47 1.506-10.184 4.241a.52.52 0 0 1-.738.003.522.522 0 0 1-.003-.737 15.283 15.283 0 0 1 10.925-4.55c1.538 0 3.053.228 4.51.674a44.082 44.082 0 0 0 6.903-7.594l.075-.104.014-.017.002-.002a11.428 11.428 0 0 1 7.656-4.262c.372-.766.73-1.546 1.06-2.327a47.912 47.912 0 0 0 3.756-17.433 3.843 3.843 0 0 0-6.157 2.699.523.523 0 0 1-.02.102 42.13 42.13 0 0 1-7.853 20.703.52.52 0 1 1-.844-.613 41.084 41.084 0 0 0 7.67-20.289.526.526 0 0 1 .025-.113c.013-.117.027-.234.049-.351a4.89 4.89 0 0 1 4.535-3.958 46.389 46.389 0 0 0-.28-4.639l-.008-.073a3.846 3.846 0 0 0-5.76 3.09c.038.705.057 1.422.057 2.132 0 8.348-2.565 16.333-7.417 23.092a.521.521 0 0 1-.848-.609c4.725-6.58 7.222-14.355 7.222-22.483 0-.706-.02-1.418-.058-2.118v-.028l.023-.03.027-.045v-.003c0-1.922 1.343-3.528 3.04-4.207a3.857 3.857 0 0 0-4.683 3.758c0 .052-.001.104.001.156l.006.043.017.287c.042.725.063 1.46.063 2.187 0 7.675-2.327 15.038-6.73 21.292a.522.522 0 0 1-.853-.6c4.278-6.078 6.54-13.233 6.54-20.692 0-.706-.022-1.421-.062-2.125l-.014-.214c-.004-.024-.01-.048-.01-.073a4.853 4.853 0 0 1 .444-2.3 2.993 2.993 0 0 0-1.975 2.81c.034.628.051 1.267.051 1.902 0 12.271-6.548 23.607-17.134 29.768a.502.502 0 0 1-.107.08c-.14.075-13.866 7.647-14.302 21.707a51.442 51.442 0 0 0 26.174-8.863 51.81 51.81 0 0 0 17.57-20.488 10.424 10.424 0 0 0-10.055 3.777" fill="#FEFEFE"/><path d="M95.579 52.027H83.06V39.51a.522.522 0 0 0-.522-.521H56.46a.522.522 0 0 0-.521.521v12.518H43.42a.522.522 0 0 0-.522.522v26.079c0 .287.234.521.522.521H55.94v12.518c0 .288.234.522.521.522h26.08a.522.522 0 0 0 .52-.522V79.149H95.58a.522.522 0 0 0 .521-.521v-26.08a.522.522 0 0 0-.521-.52" fill="#EE402D"/><path d="M72.527 83.816l-1.086-.507c-.019.027-.04.284-.059.311-.18.262-.34.745-.49 1.006h1.556c.088 0 .163-.29.182-.374.019-.085-.024-.4-.103-.436M73.567 63.208c-.346.218-.808.424-1.184.62-.558.293-1.318.56-1.84.824v2.316c0-.024.218-.047.278-.071.848-.337 1.752-.7 2.602-1.122.848-.422 1.716-.91 2.494-1.54.777-.622 1.506-1.398 2.005-2.321.236-.433.42-.891.55-1.357-1.331 1.185-3.012 2.1-4.905 2.65M72.547 78.9a2.943 2.943 0 0 0-.59-1.045 5.369 5.369 0 0 0-.847-.788 10.147 10.147 0 0 0-.942-.638c-.647-.393-1.32-.75-1.984-1.128-.664-.377-1.323-.774-1.905-1.237-.577-.463-1.07-.994-1.309-1.588a2.48 2.48 0 0 1-.185-.935 3.347 3.347 0 0 1 .034-.502l.04-.225.04-.157.021-.078.018-.042a1.62 1.62 0 0 0 .032-.085l.048-.105c.028-.072.074-.137.108-.207.088-.133.176-.267.293-.392.22-.254.354-.487.669-.708.427-.296.883-.556 1.325-.8v-2.197c-.829.398-1.593.83-2.39 1.43a5.8 5.8 0 0 0-1.09 1.083c-.172.21-.3.449-.436.692-.06.128-.118.251-.166.385l-.071.198-.066.226-.03.113-.017.082-.03.16-.013.057-.003.025-.007.048-.013.095c-.008.064-.019.128-.025.193-.023.26-.034.523-.014.79.03.53.168 1.065.394 1.542.224.478.53.892.862 1.244.333.35.694.643 1.058.897.73.508 1.47.886 2.178 1.232.709.345 1.392.655 2.016.982.618.328 1.197.665 1.6 1.07.41.403.588.85.538 1.345a2.488 2.488 0 0 1-.199.739c-.047.12-.109.241-.166.354l-.09.167c-.032.057-.071.118-.107.176-.591.923-1.09 1.787-1.394 2.54-.305.752-.444 1.418-.333 1.892.05.236.172.402.274.486a.51.51 0 0 0 .182.105l.006.002a.106.106 0 0 0 .065-.202l-.023-.013a.335.335 0 0 1-.07-.062.622.622 0 0 1-.145-.367c-.046-.37.13-.959.498-1.629.183-.337.405-.702.671-1.087.267-.39.567-.78.913-1.225.343-.456.704-1.014.841-1.743a2.447 2.447 0 0 0-.064-1.166M76.006 56.2h2.255c-.247-.744-.597-1.65-1.028-2.247-.532-.729-1.184-1.463-1.889-1.916-.707-.452-1.454-.832-2.192-1.015-1.48-.376-2.892-.292-4.038.047a7.212 7.212 0 0 0-1.986.933c-.455-.111-1.071-.163-1.482.23-.72.692-1.376 2.416-.945 2.865.432.45 2.184-.137 2.905-.83.453-.434.383-1.142.269-1.608a6.37 6.37 0 0 1 1.514-.4c.994-.143 2.148.052 3.27.46 1.117.407 2.189 1.295 2.886 2.4.18.275.332.66.461 1.08" fill="#FEFEFE"/><path d="M60.112 58.025h1.825s1.934 3.369 6.107 4.412c0 0-5.172-.37-7.932-4.412zm-1.826-1.043v.261c1.305 3.13 5.216 5.648 9.91 5.9v19.541l-2.2 1.125c-.08.038-.019.354 0 .44.02.087.202.377.29.377h2.675c.052-.261-.06-.556.01-.73.215-.53.268-1.36.79-2.086V63.144c4.955-.241 9.384-2.772 10.692-5.901v-.26H58.286z" fill="#FEFEFE"/></g></svg>