<svg width="96" height="95" viewBox="0 0 96 95" xmlns="http://www.w3.org/2000/svg"><title>0D25392E-9C31-4EF1-8708-835029227BC8</title><g fill="#FFF" fill-rule="evenodd" opacity=".6"><path d="M87.02 22.371C80.202 12.095 69.737 5.053 57.547 2.538 45.358.023 32.906 2.339 22.483 9.059 12.059 15.78 4.916 26.096 2.366 38.114c-2.55 12.017-.202 24.292 6.615 34.568C15.797 82.958 26.26 90 38.452 92.515c12.19 2.514 24.641.199 35.065-6.522 10.424-6.72 17.567-17.036 20.117-29.054 2.55-12.018.202-24.292-6.615-34.568l.57-.369-.57.369zm1.139-.738c7.015 10.576 9.433 23.214 6.808 35.582-2.624 12.368-9.979 22.99-20.706 29.906-10.725 6.915-23.544 9.299-36.087 6.712C25.63 91.245 14.856 83.994 7.84 73.42.826 62.844-1.592 50.205 1.032 37.838c2.625-12.368 9.98-22.99 20.706-29.906 10.726-6.915 23.545-9.3 36.089-6.712 12.543 2.588 23.317 9.838 30.332 20.413l-.57.37.57-.37z" fill-rule="nonzero"/><path d="M8.431 37.353l.331-.991 2.29-.734-1.426-1.853.31-.93 4.382 1.416-.329.986-2.792-.902 1.308 1.753-.047.141-2.089.649 2.773.896-.329.985zM10.552 31.519l1.174-2.43.892.418L11.897 31l.732.342.636-1.318.893.418-.637 1.317.756.353.75-1.551.892.417-1.202 2.488zM16.103 28.723l.802-1.25-2.23-1.382-.499.778.62.468c.635.48 1.219 1.147 1.307 1.386zm-.881 1.377l.263-.412c-.102-.277-.69-1.124-1.93-1.97l-.76-.517 1.606-2.506 3.066 1.9.333-.52 1.505.933-.527.823-.669-.415-1.525 2.38.67.414-.528.823-1.504-.933zM18.957 26.202l-3.54-2.907.676-.796 2.2 1.806-.892-3.348.591-.697 3.54 2.907-.675.796-2.2-1.806.89 3.349zM19.025 19.2l.776-.701 2.454 2.622 1.163-1.054-2.454-2.622.775-.702 2.454 2.622.461-.417 1.205 1.287-.727.659-.536-.572-2.447 2.217zM25.735 19.37l-2.643-3.718.864-.594 1.643 2.31.03-3.462.756-.52 2.643 3.717-.864.595-1.642-2.31-.031 3.461zM31.365 13.792l-1.49.762.856 1.622-.936.478-2.125-4.026.935-.478.814 1.541 1.49-.761-.813-1.541.935-.478 2.126 4.025-.936.478zM37.217 12.925c-.15.381-.633.794-1.22 1.01-1.338.493-2.596-.04-3.1-1.364-.463-1.22-.064-2.48 1.423-3.028.574-.211 1.135-.196 1.488-.043l-.16.89c-.288-.054-.575-.086-.982.063-.666.246-1.038.895-.72 1.732.287.753 1.02 1.091 1.798.805.308-.113.61-.335.82-.654l.653.59zM36.78 8.805l1.023-.248.48 1.92.984-2.275 1.228-.297-1.172 2.44 2.41 1.932-1.298.314-2.054-1.724.525 2.095-1.023.248zM42.172 12.216l-.519-4.508 1.047-.116.323 2.801 1.707-3.028.916-.102.519 4.509-1.047.116-.323-2.801-1.707 3.027zM48.878 6.062c-.005.246.112.326.402.332.25.004.383-.038.388-.317l.988.019c.001.628-.567 1.026-1.39 1.01-.89-.016-1.388-.44-1.376-1.063l.988.019zm-1.825 5.669l.09-4.535 1.053.02-.055 2.818 2.097-2.78.922.018-.09 4.536-1.053-.02.055-2.82-2.097 2.78-.922-.017zM54.369 7.625l1.035.194-.375 1.942 1.857-1.665 1.242.232-2.099 1.738 1.375 2.744-1.314-.246-1.137-2.409-.41 2.12-1.035-.193zM59.824 12.64c.834.265 1.457-.178 1.696-.906.26-.79-.13-1.485-.838-1.71-.727-.23-1.436.116-1.696.906-.242.74.136 1.487.838 1.71m1.162-3.54c1.336.423 2.051 1.597 1.6 2.973-.43 1.307-1.73 1.916-3.065 1.492-1.336-.424-2.052-1.598-1.6-2.974.41-1.252 1.667-1.936 3.065-1.492M66.376 12.4l-.915-.431-.465.729c-1.301 2.038-2.04 2.235-2.938 1.618l.474-.927c.316.221.735.261 2.008-1.927l.458-.79 2.756 1.301-1.995 4.09-.95-.449 1.567-3.213zM70.743 14.918l-.852-.542-.555.666c-1.552 1.86-2.31 1.965-3.121 1.241l.588-.86c.286.258.696.35 2.238-1.664l.557-.727 2.566 1.632-2.503 3.81-.885-.562 1.967-2.994zM73.296 15.507l2.12 1.698-.624.754-1.302-1.044-.512.619 1.15.92-.624.754-1.15-.92-.528.638 1.354 1.084-.624.754-2.171-1.739zM74.739 21.473l1.045 1.06 1.893-1.803-.652-.661-.608.48c-.623.495-1.421.895-1.678.924zm-1.15-1.168l.343.349c.299-.032 1.273-.393 2.402-1.38l.69-.603 2.095 2.126-2.6 2.481.435.442-1.277 1.218-.688-.698.567-.541-1.99-2.02-.567.541-.688-.697 1.277-1.218zM80.234 21.957l.697.976-.848 2.264 1.65-1.14.606.849-1.65 1.14 2.452-.016.696.976-2.72-.045-1.012 2.71-.696-.976.962-2.43-1.806 1.247-.606-.848 1.806-1.248-2.65.065-.696-.976 2.929-.012zM85.525 35.306c.106.258.327.366.59.262.25-.099.332-.334.229-.586-.104-.253-.328-.366-.579-.267-.262.104-.34.345-.24.591zm1.552-.614c.302.739.079 1.442-.618 1.718-.696.276-1.365-.074-1.668-.813-.302-.74-.067-1.448.63-1.724.697-.276 1.353.079 1.656.819zm-2.938-.031l.84 2.055-.855.34-.841-2.057.856-.338zm-2.015-.655l1.799-2.892-2.567 1.016-.369-.902 4.277-1.694.316.77-1.812 2.896 2.579-1.02.369.9-4.277 1.695-.315-.77zM88.03 36.903l.696 2.902-.654.152-4.193-.604-.249-1.035 3.863.581-.425-1.772zM11.103 65.794c.488-.087.984-.131 1.483-.131a8.26 8.26 0 0 1 6.455 3.064v.001l.046.063a35.27 35.27 0 0 0 5.737 6.174l.012.008c.106.091.255.128.399.082a11.481 11.481 0 0 1 3.531-.553c3.042 0 5.897 1.17 8.04 3.294a.414.414 0 0 0 .582.003.4.4 0 0 0 .002-.573c-2.298-2.279-5.361-3.534-8.624-3.534-1.214 0-2.41.178-3.56.524a34.457 34.457 0 0 1-5.45-5.897l-.058-.081-.012-.013-.001-.002a9.06 9.06 0 0 0-6.044-3.31A36.698 36.698 0 0 1 9.84 49.567a3.068 3.068 0 0 1 1.837-.611c1.456 0 2.71 1.02 2.983 2.423.018.096.032.191.04.285a.386.386 0 0 0 .016.079 32.404 32.404 0 0 0 6.2 16.078.413.413 0 0 0 .574.09.4.4 0 0 0 .092-.566 31.6 31.6 0 0 1-6.055-15.756.387.387 0 0 0-.02-.088 3.804 3.804 0 0 0-.038-.273c-.334-1.717-1.821-2.978-3.58-3.073.013-1.206.085-2.416.22-3.603l.007-.057c.46-.261.98-.4 1.517-.4 1.603 0 2.931 1.23 3.03 2.8-.03.547-.045 1.104-.045 1.656 0 6.482 2.025 12.683 5.855 17.932a.413.413 0 0 0 .575.093.401.401 0 0 0 .094-.565 29.433 29.433 0 0 1-5.7-17.46c0-.549.014-1.102.044-1.645v-.022c0-.008-.02-.015-.02-.023-.001-.012-.025-.024-.025-.035v-.003c0-1.493-1.057-2.739-2.397-3.267.212-.045.44-.069.659-.069 1.674 0 3.041 1.34 3.041 2.988v.12l-.004.034-.014.223a29.01 29.01 0 0 0-.05 1.699c0 5.96 1.837 11.678 5.313 16.535a.414.414 0 0 0 .574.098.401.401 0 0 0 .1-.565 27.46 27.46 0 0 1-5.163-16.068c0-.549.016-1.104.049-1.65l.01-.167c.004-.018.008-.037.009-.056a3.687 3.687 0 0 0-.35-1.786 2.326 2.326 0 0 1 1.558 2.182c-.027.487-.04.983-.04 1.477 0 9.53 5.169 18.333 13.525 23.117a.397.397 0 0 0 .085.062c.11.059 10.945 5.939 11.29 16.858a41.052 41.052 0 0 1-20.662-6.883c-5.98-4.011-10.764-9.507-13.87-15.911M77.605 68.727l-.001.002-.045.062a35.255 35.255 0 0 1-5.737 6.174l-.012.008a.414.414 0 0 1-.399.081 11.487 11.487 0 0 0-3.531-.552c-3.042 0-5.897 1.17-8.04 3.294a.414.414 0 0 1-.582.003.4.4 0 0 1-.002-.573c2.298-2.279 5.36-3.534 8.624-3.534 1.214 0 2.41.178 3.56.524a34.441 34.441 0 0 0 5.45-5.897l.058-.081.012-.013.001-.002a9.06 9.06 0 0 1 6.044-3.31 36.695 36.695 0 0 0 3.802-15.346 3.066 3.066 0 0 0-1.837-.611c-1.456 0-2.71 1.02-2.983 2.423a2.828 2.828 0 0 0-.04.285.4.4 0 0 1-.016.079 32.404 32.404 0 0 1-6.2 16.078.413.413 0 0 1-.575.09.401.401 0 0 1-.09-.566 31.598 31.598 0 0 0 6.054-15.756c.003-.03.01-.06.02-.088.01-.091.02-.182.038-.273.334-1.718 1.821-2.978 3.58-3.073a35.448 35.448 0 0 0-.22-3.603l-.007-.057c-.46-.261-.98-.4-1.517-.4-1.603 0-2.931 1.23-3.03 2.8.03.547.045 1.104.045 1.656 0 6.483-2.025 12.683-5.855 17.933a.413.413 0 0 1-.575.092.401.401 0 0 1-.094-.565 29.434 29.434 0 0 0 5.7-17.46c0-.549-.015-1.102-.045-1.645v-.022c0-.008.017-.015.018-.023 0-.012.021-.023.021-.035v-.003c0-1.492 1.06-2.739 2.4-3.267a3.143 3.143 0 0 0-.655-.068c-1.674 0-3.042 1.34-3.042 2.987v.12c.003.012.004.023.005.034l.014.223c.033.563.05 1.135.05 1.699 0 5.96-1.837 11.678-5.313 16.535a.414.414 0 0 1-.574.098.401.401 0 0 1-.1-.565 27.46 27.46 0 0 0 5.163-16.068c0-.549-.017-1.104-.049-1.65l-.01-.167c-.004-.019-.008-.037-.009-.056a3.718 3.718 0 0 1 .35-1.785 2.327 2.327 0 0 0-1.558 2.181c.027.487.04.983.04 1.477 0 9.53-5.169 18.333-13.525 23.117a.396.396 0 0 1-.085.062c-.11.059-10.945 5.939-11.29 16.858a41.053 41.053 0 0 0 20.662-6.883c5.98-4.011 10.764-9.507 13.87-15.911-2.942-.525-5.994.53-7.938 2.933"/><path d="M48.526 54.757v-10.13c3.91-.187 7.435-2.152 8.467-4.582H39.452c1.03 2.43 4.133 4.386 7.838 4.581v9.448a35.136 35.136 0 0 1-.01-.006c-.523-.292-1.044-.601-1.503-.96-.455-.36-.845-.772-1.033-1.233a1.9 1.9 0 0 1-.146-.726c-.004-.127.01-.258.027-.39l.031-.175.032-.122.017-.06.013-.033c.01-.022.018-.044.026-.066l.038-.082c.022-.056.058-.107.085-.16.07-.104.139-.208.231-.305.174-.197.28-.379.528-.55.404-.275.841-.511 1.253-.731v-1.743c0 .045-.082.089-.183.136-.664.312-1.274.65-1.91 1.12a4.557 4.557 0 0 0-.861.842c-.135.163-.237.349-.344.538-.047.1-.093.195-.131.298l-.056.154-.052.176-.024.088-.013.064-.024.123-.01.045-.002.019-.006.037-.01.075c-.007.05-.015.099-.02.15a3.664 3.664 0 0 0-.011.612c.024.413.133.828.31 1.198.178.371.42.693.681.966.263.272.548.5.835.697.577.394 1.16.688 1.72.957l.522.246v4.529l-1.736.874c-.064.03-.015.275 0 .342s.159.292.229.292h2.111c.042-.203-.047-.432.008-.566.17-.412.212-1.057.624-1.621v-3.246c.424.228.814.465 1.096.743.324.313.465.66.425 1.045a1.907 1.907 0 0 1-.157.573 3.328 3.328 0 0 1-.131.276l-.07.13c-.026.044-.058.091-.086.136-.466.716-.86 1.387-1.1 1.972-.24.585-.35 1.101-.263 1.47a.68.68 0 0 0 .216.377.403.403 0 0 0 .144.082l.005.001c.04.01.083-.01.098-.05a.082.082 0 0 0-.047-.107c-.004 0-.003 0-.018-.01a.263.263 0 0 1-.056-.048.48.48 0 0 1-.114-.285c-.036-.287.103-.744.393-1.265.145-.262.32-.545.53-.844.21-.303.448-.605.72-.952.271-.354.556-.786.665-1.353a1.87 1.87 0 0 0-.05-.905 2.276 2.276 0 0 0-.467-.81 4.23 4.23 0 0 0-.668-.613 8.018 8.018 0 0 0-.744-.496 18.677 18.677 0 0 0-.321-.187zm20.38-18.763c.227 0 .412.182.412.405v20.253a.409.409 0 0 1-.412.405h-9.881v9.721a.409.409 0 0 1-.412.405H38.027a.409.409 0 0 1-.412-.405v-9.721h-9.882a.409.409 0 0 1-.411-.405V36.399c0-.223.184-.405.412-.405h9.88v-9.721c0-.224.185-.405.413-.405h20.586c.227 0 .412.181.412.405v9.721h9.881zM51.53 44.677c-.273.17-.638.33-.935.482-.44.227-1.04.435-1.452.64v1.798c0-.019.172-.037.22-.055.669-.262 1.383-.543 2.053-.871.67-.328 1.355-.708 1.97-1.196.612-.483 1.188-1.086 1.582-1.803.186-.336.331-.692.434-1.053-1.05.92-2.378 1.63-3.872 2.058zm1.562-6.282c.171.258.311.637.426 1.042h1.785c-.196-.607-.498-1.427-.879-1.948-.42-.565-.935-1.135-1.49-1.487-.559-.351-1.148-.647-1.731-.789a6.155 6.155 0 0 0-3.188.037 5.735 5.735 0 0 0-1.567.724c-.36-.086-.846-.126-1.17.18-.57.537-1.087 1.875-.746 2.224.34.35 1.724-.107 2.293-.644.357-.337.302-.888.212-1.25a5.104 5.104 0 0 1 1.195-.31c.785-.11 1.696.04 2.582.358.881.316 1.728 1.005 2.278 1.863zM50.71 60.681l-.858-.394c-.015.022-.031.22-.046.242-.143.203-.269.578-.387.78h1.228c.07 0 .129-.223.144-.29.014-.065-.02-.31-.081-.338z"/></g></svg>