<svg width="44" height="44" viewBox="0 0 44 44" fill="none" xmlns="http://www.w3.org/2000/svg">
    <path d="M9 39H29C30.1 39 31 38.1 31 37V13H26C24.9 13 24 12.1 24 11V5H9C7.9 5 7 5.9 7 7V37C7 38.1 7.9 39 9 39Z" stroke="#145797" stroke-width="2" stroke-miterlimit="10" stroke-linecap="round" stroke-linejoin="round"/>
    <path d="M31 13L24 5" stroke="#145797" stroke-width="2" stroke-miterlimit="10" stroke-linecap="round" stroke-linejoin="round"/>
    <path d="M18 9H11V14H18V9Z" stroke="#145797" stroke-width="2" stroke-miterlimit="10" stroke-linecap="round" stroke-linejoin="round"/>
    <path d="M11 19H27" stroke="#145797" stroke-width="2" stroke-miterlimit="10" stroke-linecap="round" stroke-linejoin="round"/>
    <path d="M11 23H27" stroke="#145797" stroke-width="2" stroke-miterlimit="10" stroke-linecap="round" stroke-linejoin="round"/>
    <path d="M11 27H27" stroke="#145797" stroke-width="2" stroke-miterlimit="10" stroke-linecap="round" stroke-linejoin="round"/>
    <path d="M11 31H19" stroke="#145797" stroke-width="2" stroke-miterlimit="10" stroke-linecap="round" stroke-linejoin="round"/>
    <path d="M27.5 39C32.1944 39 36 35.1944 36 30.5C36 25.8056 32.1944 22 27.5 22C22.8056 22 19 25.8056 19 30.5C19 35.1944 22.8056 39 27.5 39Z" fill="#B4E3F9" stroke="#145797" stroke-width="2" stroke-miterlimit="10" stroke-linecap="round" stroke-linejoin="round"/>
    <path d="M27.5 29.2V35" stroke="#145797" stroke-width="2" stroke-miterlimit="10" stroke-linecap="round" stroke-linejoin="round"/>
    <path d="M27.5 26.1V26.3" stroke="#145797" stroke-width="2" stroke-miterlimit="10" stroke-linecap="round" stroke-linejoin="round"/>
</svg>
