<svg width="44" height="44" viewBox="0 0 44 44" fill="none" xmlns="http://www.w3.org/2000/svg">
    <g clip-path="url(#clip0)">
        <path d="M17 30C23.6274 30 29 24.6274 29 18C29 11.3726 23.6274 6 17 6C10.3726 6 5 11.3726 5 18C5 24.6274 10.3726 30 17 30Z" stroke="#145797" stroke-width="2" stroke-miterlimit="10" stroke-linecap="round" stroke-linejoin="round"/>
        <path d="M37 38C35.9 39.1 34.1 39.1 33 38L27.1 32.1L29.1 30.1L31.1 28.1L37 34C38.1 35.1 38.1 36.9 37 38Z" fill="#B4E3F9" stroke="#145797" stroke-width="2" stroke-miterlimit="10" stroke-linecap="round" stroke-linejoin="round"/>
        <path d="M26.2 27.1L29.2 30.1" stroke="#145797" stroke-width="2" stroke-miterlimit="10" stroke-linecap="round" stroke-linejoin="round"/>
        <path d="M17 18C15.3 18 14 16.7 14 15V14C14 12.3 15.3 11 17 11C18.7 11 20 12.3 20 14V15C20 16.7 18.7 18 17 18Z" stroke="#145797" stroke-width="2" stroke-miterlimit="10" stroke-linecap="round" stroke-linejoin="round"/>
        <path d="M12 24.1C12 21.8 13.8 20 16.1 20H17.9C20.2 20 22 21.8 22 24.1H12Z" fill="#B4E3F9" stroke="#145797" stroke-width="2" stroke-miterlimit="10" stroke-linecap="round" stroke-linejoin="round"/>
    </g>
    <defs>
        <clipPath id="clip0">
            <rect width="34.8" height="34.8" fill="white" transform="translate(4 5)"/>
        </clipPath>
    </defs>
</svg>
