<svg width="44" height="44" viewBox="0 0 44 44" fill="none" xmlns="http://www.w3.org/2000/svg">
    <path d="M22 7L5 14L22 21L39 14L22 7Z" fill="#B5E3FA" stroke="#145797" stroke-width="2" stroke-miterlimit="10" stroke-linecap="round" stroke-linejoin="round"/>
    <path d="M34 17V24H33.9C26.5 28.3 17.3 28.3 10 24V17" stroke="#145797" stroke-width="2" stroke-miterlimit="10" stroke-linecap="round" stroke-linejoin="round"/>
    <path d="M37 15V30" stroke="#145797" stroke-width="2" stroke-miterlimit="10" stroke-linecap="round" stroke-linejoin="round"/>
    <path d="M37 29C38.1 29 39 29.9 39 31C39 32.1 38.1 33 37 33C35.9 33 35 32.1 35 31C35 29.9 35.9 29 37 29Z" fill="#145797"/>
    <path d="M37 37C35.5 37 34.4 35.6 34.9 34.2L35.8 31.1H38.2L39.1 34.2C39.6 35.6 38.5 37 37 37Z" fill="#145797"/>
</svg>
