<svg width="44" height="44" viewBox="0 0 44 44" fill="none" xmlns="http://www.w3.org/2000/svg">
    <g clip-path="url(#clip0)">
        <path d="M20.6 5.6L7.2 15.9C6.2 16.7 5.8 18 6.2 19.2L11.8 36.1C12.2 37.3 13.4 38.2 14.6 38.2H30.3C31.6 38.2 32.7 37.4 33.1 36.1L38.7 19.2C39.1 18 38.7 16.6 37.7 15.9L24.3 5.6C23.2 4.8 21.7 4.8 20.6 5.6Z" stroke="#145797" stroke-width="2" stroke-miterlimit="10" stroke-linecap="round" stroke-linejoin="round"/>
        <path d="M22.5 15.2L24.8 20L30.1 20.8L26.3 24.5L27.2 29.7L22.5 27.2L17.8 29.7L18.7 24.5L14.9 20.8L20.1 20L22.5 15.2Z" fill="#B4E3F9" stroke="#145797" stroke-width="2" stroke-miterlimit="10" stroke-linecap="round" stroke-linejoin="round"/>
    </g>
    <defs>
        <clipPath id="clip0">
            <rect width="35" height="35.2" fill="white" transform="translate(5 4)"/>
        </clipPath>
    </defs>
</svg>
