<svg width="44" height="44" viewBox="0 0 44 44" fill="none" xmlns="http://www.w3.org/2000/svg">
    <path d="M22 12.8C20.1 12.8 18.6 11.3 18.6 9.4V8.4C18.6 6.5 20.1 5 22 5C23.9 5 25.4 6.5 25.4 8.4V9.5C25.4 11.3 23.9 12.8 22 12.8Z" stroke="#145797" stroke-width="2" stroke-miterlimit="10" stroke-linecap="round" stroke-linejoin="round"/>
    <path d="M28.7 23H15.3V21.1C15.3 17.8 18 15.1 21.3 15.1H22.7C26 15.1 28.7 17.8 28.7 21.1V23Z" fill="#B4E3F9" stroke="#145797" stroke-width="2" stroke-miterlimit="10" stroke-linecap="round" stroke-linejoin="round"/>
    <path d="M9 33C7.9 33 7 32.1 7 31V30C7 28.9 7.9 28 9 28C10.1 28 11 28.9 11 30V31C11 32.1 10.1 33 9 33Z" stroke="#145797" stroke-width="2" stroke-miterlimit="10" stroke-linecap="round" stroke-linejoin="round"/>
    <path d="M13 39H5V38C5 36.3 6.3 35 8 35H10C11.7 35 13 36.3 13 38V39Z" fill="#B4E3F9" stroke="#145797" stroke-width="2" stroke-miterlimit="10" stroke-linecap="round" stroke-linejoin="round"/>
    <path d="M22 33C20.9 33 20 32.1 20 31V30C20 28.9 20.9 28 22 28C23.1 28 24 28.9 24 30V31C24 32.1 23.1 33 22 33Z" stroke="#145797" stroke-width="2" stroke-miterlimit="10" stroke-linecap="round" stroke-linejoin="round"/>
    <path d="M26 39H18V38C18 36.3 19.3 35 21 35H23C24.7 35 26 36.3 26 38V39Z" fill="#B4E3F9" stroke="#145797" stroke-width="2" stroke-miterlimit="10" stroke-linecap="round" stroke-linejoin="round"/>
    <path d="M35 33C33.9 33 33 32.1 33 31V30C33 28.9 33.9 28 35 28C36.1 28 37 28.9 37 30V31C37 32.1 36.1 33 35 33Z" stroke="#145797" stroke-width="2" stroke-miterlimit="10" stroke-linecap="round" stroke-linejoin="round"/>
    <path d="M39 39H31V38C31 36.3 32.3 35 34 35H36C37.7 35 39 36.3 39 38V39Z" fill="#B4E3F9" stroke="#145797" stroke-width="2" stroke-miterlimit="10" stroke-linecap="round" stroke-linejoin="round"/>
</svg>
