<svg width="44" height="44" viewBox="0 0 44 44" fill="none" xmlns="http://www.w3.org/2000/svg">
    <g clip-path="url(#clip0)">
        <path d="M21.3 32.3C26.8228 32.3 31.3 27.8228 31.3 22.3C31.3 16.7771 26.8228 12.3 21.3 12.3C15.7772 12.3 11.3 16.7771 11.3 22.3C11.3 27.8228 15.7772 32.3 21.3 32.3Z" stroke="#145797" stroke-width="2" stroke-miterlimit="10" stroke-linecap="round" stroke-linejoin="round"/>
        <path d="M21.3 26.3C23.5091 26.3 25.3 24.5091 25.3 22.3C25.3 20.0908 23.5091 18.3 21.3 18.3C19.0909 18.3 17.3 20.0908 17.3 22.3C17.3 24.5091 19.0909 26.3 21.3 26.3Z" fill="#B4E3F9" stroke="#145797" stroke-width="2" stroke-miterlimit="10" stroke-linecap="round" stroke-linejoin="round"/>
        <path d="M26.9 38.4L29 37.5C29.4 37.3 29.7 36.8 29.6 36.3L29.2 34.6C29.1 34.2 29.3 33.8 29.6 33.6C30.8 32.7 31.9 31.6 32.8 30.4C33 30.1 33.4 29.9 33.8 30L35.5 30.4C36 30.5 36.5 30.2 36.6 29.8L37.5 27.7C37.7 27.2 37.5 26.7 37.1 26.5L35.6 25.6C35.3 25.4 35.1 25 35.1 24.6C35.3 23.1 35.3 21.6 35 20.1C34.9 19.7 35.1 19.3 35.4 19.1L36.9 18.2C37.3 17.9 37.5 17.4 37.3 17L36.4 14.9C36.2 14.5 35.7 14.2 35.2 14.3L33.5 14.7C33.1 14.8 32.7 14.6 32.5 14.3C31.6 13.1 30.5 12 29.3 11.1C29 10.9 28.8 10.5 28.9 10.1L29.3 8.40002C29.4 7.90002 29.1 7.40002 28.7 7.30002L26.6 6.40002C26.1 6.20002 25.6 6.40002 25.4 6.80002L24.4 8.00002C24.2 8.30002 23.8 8.50002 23.4 8.50002C21.9 8.30002 20.4 8.30002 18.9 8.60002C18.5 8.70002 18.1 8.50002 17.9 8.20002L17 6.70002C16.7 6.30002 16.2 6.10002 15.8 6.30002L13.5 7.10002C13.1 7.30002 12.8 7.80002 13 8.20002L13.4 10C13.5 10.4 13.3 10.8 13 11C11.7 11.9 10.7 13 9.80001 14.2C9.60001 14.5 9.20001 14.7 8.80001 14.6L7.10001 14.3C6.60001 14.2 6.10001 14.5 6.00001 14.9L5.10001 17C4.90001 17.5 5.10001 18 5.50001 18.2L7.00001 19.1C7.30001 19.3 7.50001 19.7 7.50001 20.1C7.30001 21.6 7.30001 23.1 7.60001 24.6C7.70001 25 7.50001 25.4 7.20001 25.6L5.70001 26.5C5.30001 26.8 5.10001 27.3 5.30001 27.7L6.10001 30C6.30001 30.4 6.80001 30.7 7.30001 30.6L9.00001 30.2C9.40001 30.1 9.80001 30.3 10 30.6C10.9 31.8 12 32.9 13.2 33.8C13.5 34 13.7 34.4 13.6 34.8L13.2 36.5C13.1 37 13.4 37.5 13.8 37.6L15.9 38.5C16.4 38.7 16.9 38.5 17.1 38.1L18 36.6C18.2 36.3 18.6 36.1 19 36.1C20.5 36.3 22 36.3 23.5 36C23.9 35.9 24.3 36.1 24.5 36.4L25.4 37.9C25.9 38.4 26.4 38.6 26.9 38.4Z" stroke="#145797" stroke-width="2" stroke-miterlimit="10" stroke-linecap="round" stroke-linejoin="round"/>
    </g>
    <defs>
        <clipPath id="clip0">
            <rect width="34.6" height="34.6" fill="white" transform="translate(4 5)"/>
        </clipPath>
    </defs>
</svg>
