<svg width="44" height="44" viewBox="0 0 44 44" fill="none" xmlns="http://www.w3.org/2000/svg">
    <path d="M25 19.713V19.913C25 21.213 24 22.213 22.7 22.213H20V17.413H22.7C24 17.413 25 18.413 25 19.713Z" fill="#B4E3F9"/>
    <path d="M39 32.013C27.7 28.213 16.3 36.513 5 32.713C4.4 32.513 4 31.913 4 31.313C4 25.313 4 19.313 4 13.313C4 12.713 4.4 12.513 5 12.713C16.3 16.613 27.7 8.21302 39 12.013C39.6 12.213 40 12.813 40 13.413C40 19.413 40 25.413 40 31.413C40 31.913 39.6 32.213 39 32.013ZM6 31.113C16.7 34.013 27.3 26.813 38 29.813C38 24.513 38 19.113 38 13.813C27.3 10.813 16.7 18.013 6 15.113C6 20.413 6 25.713 6 31.113ZM36.7 26.413C36.7 25.813 36.3 25.313 35.7 25.213C34.1 25.013 32.6 25.013 31 25.013C30.4 25.013 30 25.513 30 26.113C30 26.713 30.4 27.113 31 27.013C32.6 26.913 34.1 27.013 35.7 27.213C36.3 27.313 36.7 27.013 36.7 26.413ZM15.2 18.513C15.2 17.913 14.8 17.613 14.2 17.613C12.7 17.713 11.2 17.813 9.7 17.613C9.1 17.613 8.7 17.913 8.7 18.513C8.7 19.113 9.1 19.613 9.7 19.613C11.2 19.713 12.7 19.713 14.2 19.613C14.8 19.513 15.2 19.013 15.2 18.513ZM22.7 16.213C21.8 16.413 20.9 16.613 20 16.713C19.4 16.813 19 17.313 19 17.913C19 18.213 19 18.513 19 18.813C19 20.113 19 21.413 19 22.713C19 23.413 19 24.213 19 24.913C18.4 25.013 18 25.513 18 26.113C18 26.713 18.4 27.013 19 26.913C19 27.213 19 27.613 19 27.913C19 28.513 19.4 28.813 20 28.713C20.6 28.613 21 28.113 21 27.513C21 27.213 21 26.813 21 26.513C21.3 26.413 21.7 26.413 22 26.313C22.6 26.213 23 25.713 23 25.113C23 24.513 22.6 24.213 22 24.313C21.7 24.413 21.3 24.413 21 24.513C21 24.113 21 23.713 21 23.313C21.6 23.213 22.1 23.113 22.7 23.013C24.5 22.613 26 20.913 26 19.113V18.913C26 17.113 24.5 15.913 22.7 16.213ZM24 19.513C24 20.213 23.4 20.913 22.7 21.113C22.1 21.213 21.6 21.313 21 21.413C21 20.513 21 19.513 21 18.613C21.6 18.513 22.1 18.413 22.7 18.313C23.4 18.113 24 18.613 24 19.313V19.513Z" fill="#145797"/>
</svg>
