<svg width="44" height="44" viewBox="0 0 44 44" fill="none" xmlns="http://www.w3.org/2000/svg">
    <path d="M22 39C31.3888 39 39 31.3888 39 22C39 12.6112 31.3888 5 22 5C12.6112 5 5 12.6112 5 22C5 31.3888 12.6112 39 22 39Z" stroke="#145797" stroke-width="2" stroke-miterlimit="10" stroke-linecap="round" stroke-linejoin="round"/>
    <path d="M19 30V14H23C25.2 14 27 15.8 27 18C27 20.2 25.2 22 23 22H19" fill="#B5E3FA"/>
    <path d="M19 30V14H23C25.2 14 27 15.8 27 18C27 20.2 25.2 22 23 22H19" stroke="#145797" stroke-width="2" stroke-miterlimit="10" stroke-linecap="round" stroke-linejoin="round"/>
    <path d="M17 26H24" stroke="#145797" stroke-width="2" stroke-miterlimit="10" stroke-linecap="round" stroke-linejoin="round"/>
</svg>
