<svg width="17" height="17" viewBox="0 0 17 17" fill="none" xmlns="http://www.w3.org/2000/svg">
    <path fill-rule="evenodd" clip-rule="evenodd" d="M15.7117 8.70725C15.8037 8.61525 15.8767 8.50425 15.9277 8.38225C16.0287 8.13825 16.0287 7.86225 15.9277 7.61825C15.8767 7.49625 15.8037 7.38525 15.7117 7.29225L10.7117 2.29325C10.3207 1.90225 9.68873 1.90225 9.29773 2.29325C9.10273 2.48825 9.00473 2.74425 9.00473 3.00025C9.00473 3.25625 9.10273 3.51225 9.29773 3.70725L12.5907 7.00025L1 7.00025C0.448 7.00025 2.41287e-08 7.44825 0 8.00025C-2.41287e-08 8.55225 0.448 9.00025 1 9.00025L12.5907 9.00025L9.29773 12.2933C9.10273 12.4882 9.00473 12.7443 9.00473 13.0002C9.00473 13.2562 9.10273 13.5122 9.29773 13.7072C9.68873 14.0982 10.3207 14.0982 10.7117 13.7072L15.7117 8.70725Z" fill-opacity="0.4" fill="rgba(31, 31, 31, 0.6)"/>
</svg>
