<svg width="24" height="24" viewBox="0 0 24 24" fill="none" xmlns="http://www.w3.org/2000/svg">
    <mask id="mask0" mask-type="alpha" maskUnits="userSpaceOnUse" x="0" y="0" width="24" height="24">
        <path d="M16.7071 5.70711C17.0976 5.31658 17.0976 4.68342 16.7071 4.29289C16.3166 3.90237 15.6834 3.90237 15.2929 4.29289L16.7071 5.70711ZM15.2929 19.7071C15.6834 20.0976 16.3166 20.0976 16.7071 19.7071C17.0976 19.3166 17.0976 18.6834 16.7071 18.2929L15.2929 19.7071ZM15.2929 4.29289L9 10.5858L10.4142 12L16.7071 5.70711L15.2929 4.29289ZM9 13.4142L15.2929 19.7071L16.7071 18.2929L10.4142 12L9 13.4142ZM9 10.5858C8.21895 11.3668 8.21895 12.6332 9 13.4142L10.4142 12L10.4142 12L9 10.5858Z" fill="#1F1F1F"/>
    </mask>
    <g mask="url(#mask0)">
        <rect width="24" height="24" fill="#0288D1"/>
    </g>
</svg>
