<svg width="30" height="30" viewBox="0 0 30 30" fill="none" xmlns="http://www.w3.org/2000/svg">
    <path d="M30 15C30 23.2843 23.2843 30 15 30C6.71573 30 0 23.2843 0 15C0 6.71573 6.71573 0 15 0C23.2843 0 30 6.71573 30 15ZM4.5 15C4.5 20.799 9.20101 25.5 15 25.5C20.799 25.5 25.5 20.799 25.5 15C25.5 9.20101 20.799 4.5 15 4.5C9.20101 4.5 4.5 9.20101 4.5 15Z" fill="white"/>
    <path d="M30 15C30 16.9698 29.612 18.9204 28.8582 20.7403C28.1044 22.5601 26.9995 24.2137 25.6066 25.6066C24.2137 26.9995 22.5601 28.1044 20.7403 28.8582C18.9204 29.612 16.9698 30 15 30L15 25.5C16.3789 25.5 17.7443 25.2284 19.0182 24.7007C20.2921 24.1731 21.4496 23.3996 22.4246 22.4246C23.3996 21.4496 24.1731 20.2921 24.7007 19.0182C25.2284 17.7443 25.5 16.3789 25.5 15H30Z" fill="#1976D2"/>
</svg>
